<svg width="18" height="18" viewBox="0 0 18 18" fill="none" xmlns="http://www.w3.org/2000/svg">
<path d="M6.75 5.25H4.5C4.10218 5.25 3.72064 5.40804 3.43934 5.68934C3.15804 5.97064 3 6.35218 3 6.75V13.5C3 13.8978 3.15804 14.2794 3.43934 14.5607C3.72064 14.842 4.10218 15 4.5 15H11.25C11.6478 15 12.0294 14.842 12.3107 14.5607C12.592 14.2794 12.75 13.8978 12.75 13.5V11.25" stroke="#595C97" stroke-width="1.5" stroke-linecap="round" stroke-linejoin="round"/>
<path d="M6.75 11.25H9L15.375 4.875C15.6734 4.57663 15.841 4.17196 15.841 3.75C15.841 3.32805 15.6734 2.92337 15.375 2.625C15.0766 2.32663 14.672 2.15901 14.25 2.15901C13.828 2.15901 13.4234 2.32663 13.125 2.625L6.75 9V11.25Z" stroke="#595C97" stroke-width="1.5" stroke-linecap="round" stroke-linejoin="round"/>
<path d="M12 3.75L14.25 6" stroke="#595C97" stroke-width="1.5" stroke-linecap="round" stroke-linejoin="round"/>
</svg>
