<svg width="18" height="18" viewBox="0 0 18 18" fill="none" xmlns="http://www.w3.org/2000/svg">
<path d="M9 10.5C9.82843 10.5 10.5 9.82843 10.5 9C10.5 8.17157 9.82843 7.5 9 7.5C8.17157 7.5 7.5 8.17157 7.5 9C7.5 9.82843 8.17157 10.5 9 10.5Z" stroke="#595C97" stroke-width="1.5" stroke-linecap="round" stroke-linejoin="round"/>
<path d="M1.5 9L2.625 10.5C3.39891 11.4422 4.37202 12.2011 5.47433 12.7221C6.57665 13.2432 7.78074 13.5134 9 13.5134C10.2193 13.5134 11.4234 13.2432 12.5257 12.7221C13.628 12.2011 14.6011 11.4422 15.375 10.5L16.5 9" stroke="#595C97" stroke-width="1.5" stroke-linecap="round" stroke-linejoin="round"/>
<path d="M1.5 9L2.625 7.5C3.39891 6.55785 4.37202 5.79894 5.47433 5.27789C6.57665 4.75684 7.78074 4.48659 9 4.48659C10.2193 4.48659 11.4234 4.75684 12.5257 5.27789C13.628 5.79894 14.6011 6.55785 15.375 7.5L16.5 9" stroke="#595C97" stroke-width="1.5" stroke-linecap="round" stroke-linejoin="round"/>
</svg>
