<svg width="24" height="24" viewBox="0 0 24 24" fill="none" xmlns="http://www.w3.org/2000/svg">
<path d="M12 15V15.01M12 9V11V9Z" stroke="#EB5757" stroke-width="1.5" stroke-linecap="round" stroke-linejoin="round"/>
<path d="M5.06957 19H18.9996C19.3182 18.9836 19.6282 18.8912 19.9038 18.7305C20.1795 18.5698 20.4126 18.3455 20.5839 18.0764C20.7552 17.8072 20.8596 17.501 20.8884 17.1833C20.9172 16.8656 20.8696 16.5456 20.7496 16.25L13.7496 3.99999C13.5766 3.68738 13.3231 3.42682 13.0153 3.24537C12.7076 3.06393 12.3568 2.96823 11.9996 2.96823C11.6423 2.96823 11.2916 3.06393 10.9838 3.24537C10.6761 3.42682 10.4225 3.68738 10.2496 3.99999L3.24957 16.25C3.12951 16.5456 3.0819 16.8656 3.11072 17.1833C3.13953 17.501 3.24394 17.8072 3.41522 18.0764C3.58649 18.3455 3.81968 18.5698 4.09529 18.7305C4.37091 18.8912 4.68096 18.9836 4.99957 19" stroke="#EB5757" stroke-width="1.5" stroke-linecap="round" stroke-linejoin="round"/>
</svg>
